<?xml version="1.0" standalone="no"?>
<!DOCTYPE svg PUBLIC "-//W3C//DTD SVG 20010904//EN"
 "http://www.w3.org/TR/2001/REC-SVG-20010904/DTD/svg10.dtd">
<svg version="1.0" xmlns="http://www.w3.org/2000/svg"
 width="283.000000pt" height="178.000000pt" viewBox="0 0 283.000000 178.000000"
 preserveAspectRatio="xMidYMid meet">
<metadata>
Created by potrace 1.16, written by Peter Selinger 2001-2019
</metadata>
<g transform="translate(0.000000,178.000000) scale(0.100000,-0.100000)"
fill="#000000" stroke="none">
<path d="M2603 1704 c-44 -22 -78 -89 -69 -137 26 -136 208 -156 259 -28 46
113 -77 220 -190 165z"/>
<path d="M355 1436 c-63 -20 -99 -42 -137 -84 -47 -52 -63 -99 -92 -272 -14
-80 -41 -234 -61 -344 -19 -109 -35 -203 -35 -209 0 -13 82 0 145 24 27 10 67
33 88 50 60 50 83 108 117 300 36 198 55 246 103 256 62 13 72 10 70 -22 -1
-26 -79 -484 -99 -584 l-7 -33 44 7 c114 17 198 63 244 134 26 39 66 211 95
413 14 96 17 99 90 89 41 -5 45 -9 48 -36 2 -17 -9 -96 -23 -175 -14 -80 -28
-166 -32 -191 -7 -56 17 -136 50 -167 29 -27 100 -58 154 -67 l41 -6 11 53
c17 88 99 538 110 607 15 93 0 151 -53 206 -25 27 -56 47 -81 54 -59 16 -737
14 -790 -3z"/>
<path d="M1540 1441 c-68 -21 -154 -90 -185 -150 -14 -28 -41 -167 -119 -612
-14 -80 -26 -149 -26 -153 0 -5 21 -5 48 -2 121 17 197 65 243 152 34 63 53
162 39 198 -20 53 -12 110 20 151 26 33 50 90 50 121 0 19 30 22 197 21 177 0
198 5 270 67 45 39 88 117 99 179 l6 37 -308 -1 c-170 0 -320 -4 -334 -8z"/>
<path d="M2387 1439 c-91 -21 -174 -88 -202 -163 -24 -63 -143 -742 -132 -753
4 -3 31 -1 61 5 120 24 211 93 240 180 13 38 136 703 136 734 0 10 -53 9 -103
-3z"/>
<path d="M1605 1008 c-15 -14 -28 -38 -32 -60 -5 -32 -1 -41 25 -68 62 -61
162 -25 162 59 0 78 -95 120 -155 69z"/>
</g>
</svg>
